<?xml version="1.0" encoding="utf-8"?>
<!-- Generator: Adobe Illustrator 27.5.0, SVG Export Plug-In . SVG Version: 6.00 Build 0)  -->
<svg version="1.1" xmlns="http://www.w3.org/2000/svg" xmlns:xlink="http://www.w3.org/1999/xlink" x="0px" y="0px"
	 viewBox="0 0 500 500" style="enable-background:new 0 0 500 500;" xml:space="preserve">
<g id="Background_complete">
	<g>
		<g>
			<g>
				<g>
					<g>
						<path style="fill:#E0E0E0;" d="M444.314,330.198H263.568c-3.232,0-5.862-2.63-5.862-5.862V61.062
							c0-3.232,2.63-5.862,5.862-5.862h180.746c3.232,0,5.862,2.629,5.862,5.862v263.273
							C450.176,327.568,447.547,330.198,444.314,330.198z M263.568,55.45c-3.095,0-5.612,2.518-5.612,5.612v263.273
							c0,3.095,2.518,5.612,5.612,5.612h180.746c3.095,0,5.612-2.518,5.612-5.612V61.062c0-3.094-2.518-5.612-5.612-5.612H263.568z"
							/>
					</g>
				</g>
				<g>
					<g>
						<path style="fill:#E0E0E0;" d="M235.886,330.198H55.14c-3.232,0-5.862-2.63-5.862-5.862V61.062
							c0-3.232,2.629-5.862,5.862-5.862h180.747c3.232,0,5.862,2.629,5.862,5.862v263.273
							C241.749,327.568,239.119,330.198,235.886,330.198z M55.14,55.45c-3.094,0-5.612,2.518-5.612,8.344v263.273
							c0,0.363,2.518,2.88,5.612,2.88h180.747c3.095,0,5.612-2.518,5.612-5.612V61.062c0-3.094-2.518-5.612-5.612-5.612H55.14z"/>
					</g>
				</g>
			</g>
			<g>
				<g>
					<rect x="0.394" y="391.267" style="fill:#E0E0E0;" width="500" height="0.25"/>
				</g>
			</g>
		</g>
		<rect x="52.066" y="405.531" style="fill:#E0E0E0;" width="16.06" height="0.25"/>
		<rect x="170.746" y="402.821" style="fill:#E0E0E0;" width="53.53" height="0.25"/>
		<rect x="69.126" y="414.821" style="fill:#E0E0E0;" width="36.25" height="0.25"/>
		<rect x="378.746" y="402.691" style="fill:#E0E0E0;" width="43.19" height="0.25"/>
		<rect x="430.846" y="402.691" style="fill:#E0E0E0;" width="6.33" height="0.25"/>
		<rect x="316.606" y="408.921" style="fill:#E0E0E0;" width="53.89" height="0.25"/>
	</g>
</g>
<g id="Background_simple" style="display:none;">
	<g style="display:inline;">
		<path style="fill:#407BFF;" d="M174.909,55.68c-21.564,2.847-42.358,8.907-60.801,18.413
			c-21.737,11.204-43.946,28.659-37.386,51.49c12.11,42.149,70.206,42.917,58.607,71.257c-13.139,32.102-4.328,69.757,54.63,80.228
			c111.982,19.889,247.351-96.484,209.331-160.43C375.62,76.828,289.41,40.565,174.909,55.68z"/>
		<path style="opacity:0.9;fill:#FFFFFF;" d="M174.909,55.68c-21.564,2.847-42.358,8.907-60.801,18.413
			c-21.737,11.204-43.946,28.659-37.386,51.49c12.11,42.149,70.206,42.917,58.607,71.257c-13.139,32.102-4.328,69.757,54.63,80.228
			c111.982,19.889,247.351-96.484,209.331-160.43C375.62,76.828,289.41,40.565,174.909,55.68z"/>
	</g>
</g>
<g id="Shadow">
	<g>
		<g>
			<path style="fill:#F5F5F5;" d="M459.269,441.696c0,3.387-93.517,6.132-208.875,6.132s-208.875-2.745-208.875-6.132
				c0-3.387,93.516-6.132,208.875-6.132S459.269,438.309,459.269,441.696z"/>
		</g>
	</g>
</g>
<g id="Bone">
	<path style="fill:#407BFF;" d="M386.274,188.275c-3.138-0.564-6.549,1.181-7.928,4.055c-1.379,2.875-0.606,6.627,1.798,8.721
		c1.565,1.364,3.732,1.942,5.787,1.696l17.459,29.434c-2.084,1.699-2.323,4.22-1.488,6.514c0.935,2.57,3.307,4.494,6.317,4.582
		c2.734,0.08,5.366-1.915,6.189-4.523c3.138,0.564,6.549-1.18,7.928-4.055c1.379-2.875,0.605-6.627-1.798-8.721
		c-1.738-1.515-4.217-2.061-6.462-1.585l-16.904-28.456c2.068-1.611,2.51-5.126,1.608-7.604c-0.935-2.57-3.306-4.494-6.317-4.582
		C389.729,183.671,387.097,185.667,386.274,188.275z"/>
</g>
<g id="Shampoo">
	<g>
		<polygon style="fill:#407BFF;" points="72.861,439.15 76.464,358.01 86.087,351.573 108.289,351.573 118.34,358.247 
			121.211,439.822 		"/>
		
			<ellipse transform="matrix(0.7071 -0.7071 0.7071 0.7071 -243.1935 181.5843)" style="fill:#FFFFFF;" cx="97.595" cy="384.353" rx="14.267" ry="14.267"/>
		<path style="fill:#407BFF;" d="M108.295,351.573H86.087l0.828-14.087c0.071-1.217,1.079-2.167,2.298-2.167h15.749
			c1.206,0,2.207,0.931,2.296,2.133L108.295,351.573z"/>
		<line style="fill:none;stroke:#263238;stroke-miterlimit:10;" x1="86.644" y1="342.103" x2="107.599" y2="342.103"/>
		<g>
			<path style="fill:#263238;" d="M93.29,342.343c0.18,1.379,1.077,2.643,2.318,3.27c1.241,0.626,2.791,0.597,4.007-0.077
				c1.216-0.674,2.063-1.972,2.191-3.356L93.29,342.343z"/>
		</g>
		<polygon style="opacity:0.3;" points="76.464,358.01 118.34,358.247 108.295,351.573 86.087,351.573 		"/>
		<g>
			<g>
				<path style="fill:#407BFF;" d="M99.993,383.863c-1.231-0.656-1.954-0.822-2.884-0.419s-1.628,1.191-2.294,1.955
					c-0.769,0.883-1.539,1.767-2.308,2.65c-0.711,0.816-1.461,1.731-1.476,2.813c-0.014,1.065,0.734,2.036,1.677,2.53
					c0.944,0.494,2.049,0.581,3.113,0.52c1.063-0.06,2.117-0.257,3.181-0.292c1.195-0.039,2.402,0.127,3.583-0.057
					s2.396-0.822,2.819-1.941c0.542-1.436-0.391-2.983-1.371-4.164C102.715,385.868,101.8,385.005,99.993,383.863"/>
			</g>
			<g>
				<path style="fill:#407BFF;" d="M107.526,382.482c-0.22-1.019-0.824-2.759-1.713-2.853c-0.627,0.058-1.202,0.413-1.618,0.885
					c-0.416,0.473-0.687,1.056-0.888,1.653c-0.22,0.655-0.362,1.352-0.274,2.037c0.088,0.685,0.432,1.361,1.016,1.731
					c0.88,0.559,2.135,0.266,2.828-0.513C107.57,384.645,107.747,383.501,107.526,382.482z"/>
			</g>
			<g>
				<path style="fill:#407BFF;" d="M92.745,385.228c-0.096-0.815-0.52-1.563-1.064-2.178c-0.391-0.442-1.009-0.989-1.569-1.445
					c-0.507-0.413-1.257-0.418-1.727,0.037c-0.131,0.126-0.245,0.27-0.34,0.423c-0.315,0.511-0.432,1.122-0.463,1.721
					c-0.041,0.797,0.064,1.612,0.405,2.334c0.34,0.721,0.93,1.341,1.676,1.625c0.745,0.284,1.644,0.195,2.265-0.305
					C92.567,386.925,92.841,386.043,92.745,385.228z"/>
			</g>
			<g>
				<path style="fill:#407BFF;" d="M95.165,374.776c-1.397,0.255-2.651,1.2-3.283,2.472c-0.631,1.272-0.625,2.842,0.017,4.109
					c0.442,0.873,1.288,1.644,2.266,1.604c0.741-0.03,1.406-0.533,1.787-1.17c0.381-0.637,0.516-1.391,0.563-2.131
					c0.078-1.231-0.07-2.476-0.436-3.653c-0.147-0.474-0.395-0.999-0.876-1.12"/>
			</g>
			<g>
				<path style="fill:#407BFF;" d="M99.719,375.071c-0.529-0.283-1.252-0.127-1.618,0.348c-0.271,0.352-0.34,0.815-0.389,1.256
					c-0.103,0.92-0.157,1.857,0.021,2.766c0.178,0.908,0.61,1.793,1.336,2.368c0.726,0.574,1.77,0.785,2.607,0.39
					c0.88-0.415,1.379-1.418,1.405-2.39c0.026-0.973-0.351-1.915-0.839-2.757c-0.543-0.936-1.399-1.453-2.378-1.914"/>
			</g>
		</g>
		<path style="fill:#FFFFFF;" d="M110.036,407.82H85.198c-1.224,0-2.216-0.992-2.216-2.216l0,0c0-1.224,0.992-2.216,2.216-2.216
			h24.838c1.224,0,2.216,0.992,2.216,2.216l0,0C112.251,406.828,111.259,407.82,110.036,407.82z"/>
		<polygon style="opacity:0.3;fill:#FFFFFF;" points="121.055,435.563 73.054,434.806 73.896,415.837 120.455,416.188 		"/>
	</g>
</g>
<g id="Nail_Clipper">
	<g>
		<g>
			<polygon style="fill:#263238;" points="363.673,118.494 363.785,109.817 372.608,90.322 368.404,83.555 367.443,85.531 
				369.516,90.383 365.865,94.342 359.001,94.656 352.999,105.129 358.481,109.842 358.637,116.991 			"/>
			<polygon style="opacity:0.2;fill:#FFFFFF;" points="363.673,118.494 363.785,109.817 372.608,90.322 368.404,83.555 
				367.443,85.531 369.516,90.383 365.865,94.342 359.001,94.656 352.999,105.129 358.481,109.842 358.637,116.991 			"/>
		</g>
		<polygon style="fill:#263238;" points="343.655,108.584 350.469,103.211 360.56,84.341 368.488,83.555 367.505,85.52 
			362.394,86.831 361.477,92.138 365.408,97.773 360.756,108.911 353.68,107.434 347.914,111.663 		"/>
		<polygon style="opacity:0.3;fill:#FFFFFF;" points="343.655,108.584 350.469,103.211 360.56,84.341 368.488,83.555 367.505,85.52 
			362.394,86.831 361.477,92.138 365.408,97.773 360.756,108.911 353.68,107.434 347.914,111.663 		"/>
		<path style="opacity:0.3;fill:#FFFFFF;" d="M362.804,99.403c0,1.345-1.09,2.435-2.435,2.435c-1.345,0-2.435-1.09-2.435-2.435
			c0-1.345,1.09-2.435,2.435-2.435C361.714,96.968,362.804,98.058,362.804,99.403z"/>
		<path style="fill:#407BFF;" d="M345.385,105.328l-15.277,9.636l-25.861,30.082c-2.1,2.443-1.774,6.138,0.722,8.175l0,0
			c2.405,1.963,5.935,1.654,7.963-0.696l27.93-32.374l7.83-5.247l2.185-4.213L345.385,105.328z"/>
		<path style="fill:#407BFF;" d="M364.586,114.351l0.637,18.051l-10.302,38.309c-0.837,3.112-4.074,4.922-7.163,4.006l0,0
			c-2.976-0.882-4.708-3.974-3.908-6.973l11.031-41.309l-0.072-9.425l2.252-4.177L364.586,114.351z"/>
	</g>
</g>
<g id="Health_Icons">
	<g>
		<g>
			<rect x="89.929" y="193.275" style="fill:#407BFF;" width="9.371" height="30.4"/>
			
				<rect x="89.929" y="193.275" transform="matrix(6.123234e-17 -1 1 6.123234e-17 -113.8604 303.0895)" style="fill:#407BFF;" width="9.371" height="30.4"/>
		</g>
		<g style="opacity:0.5;">
			<rect x="89.929" y="193.275" style="fill:#FFFFFF;" width="9.371" height="30.4"/>
			
				<rect x="89.929" y="193.275" transform="matrix(6.123234e-17 -1 1 6.123234e-17 -113.8604 303.0895)" style="fill:#FFFFFF;" width="9.371" height="30.4"/>
		</g>
		<g>
			<rect x="60.737" y="214.574" style="fill:#407BFF;" width="5.611" height="18.202"/>
			
				<rect x="60.737" y="214.574" transform="matrix(6.123234e-17 -1 1 6.123234e-17 -160.1328 287.2172)" style="fill:#407BFF;" width="5.611" height="18.202"/>
		</g>
		<g style="opacity:0.5;">
			<rect x="60.737" y="214.574" style="fill:#FFFFFF;" width="5.611" height="18.202"/>
			
				<rect x="60.737" y="214.574" transform="matrix(6.123234e-17 -1 1 6.123234e-17 -160.1328 287.2172)" style="fill:#FFFFFF;" width="5.611" height="18.202"/>
		</g>
	</g>
	<g>
		<g>
			<rect x="244.23" y="49.632" style="fill:#407BFF;" width="11.052" height="35.854"/>
			
				<rect x="244.23" y="49.632" transform="matrix(6.123234e-17 -1 1 6.123234e-17 182.1964 317.3151)" style="fill:#407BFF;" width="11.052" height="35.854"/>
		</g>
		<g style="opacity:0.5;">
			<rect x="244.23" y="49.632" style="fill:#FFFFFF;" width="11.052" height="35.854"/>
			
				<rect x="244.23" y="49.632" transform="matrix(6.123234e-17 -1 1 6.123234e-17 182.1964 317.3151)" style="fill:#FFFFFF;" width="11.052" height="35.854"/>
		</g>
	</g>
	<g>
		<g>
			<rect x="397.06" y="122.792" style="fill:#407BFF;" width="8.551" height="27.742"/>
			
				<rect x="397.06" y="122.792" transform="matrix(6.123234e-17 -1 1 6.123234e-17 264.6725 537.9989)" style="fill:#407BFF;" width="8.551" height="27.742"/>
		</g>
		<g style="opacity:0.5;">
			<rect x="397.06" y="122.792" style="fill:#FFFFFF;" width="8.551" height="27.742"/>
			
				<rect x="397.06" y="122.792" transform="matrix(6.123234e-17 -1 1 6.123234e-17 264.6725 537.9989)" style="fill:#FFFFFF;" width="8.551" height="27.742"/>
		</g>
	</g>
	<g>
		<g>
			<rect x="351.078" y="239.473" style="fill:#407BFF;" width="5.727" height="18.579"/>
			
				<rect x="351.078" y="239.473" transform="matrix(6.123234e-17 -1 1 6.123234e-17 105.1783 602.7039)" style="fill:#407BFF;" width="5.727" height="18.579"/>
		</g>
		<g style="opacity:0.5;">
			<rect x="351.078" y="239.473" style="fill:#FFFFFF;" width="5.727" height="18.579"/>
			
				<rect x="351.078" y="239.473" transform="matrix(6.123234e-17 -1 1 6.123234e-17 105.1783 602.7039)" style="fill:#FFFFFF;" width="5.727" height="18.579"/>
		</g>
	</g>
	<g>
		<g>
			<rect x="285.577" y="82.763" style="fill:#407BFF;" width="5.611" height="18.202"/>
			
				<rect x="285.577" y="82.763" transform="matrix(6.123234e-17 -1 1 6.123234e-17 196.5179 380.2466)" style="fill:#407BFF;" width="5.611" height="18.202"/>
		</g>
		<g style="opacity:0.5;">
			<rect x="285.577" y="82.763" style="fill:#FFFFFF;" width="5.611" height="18.202"/>
			
				<rect x="285.577" y="82.763" transform="matrix(6.123234e-17 -1 1 6.123234e-17 196.5179 380.2466)" style="fill:#FFFFFF;" width="5.611" height="18.202"/>
		</g>
	</g>
</g>
<g id="Comb">
	<g>
		<path style="fill:#407BFF;" d="M64.409,313.108l-22.443-53.582c-1.3-3.103,0.162-6.673,3.265-7.973l0.525-0.22l27.37,65.344l0,0
			C69.733,318.1,65.83,316.502,64.409,313.108z"/>
		<path style="fill:#407BFF;" d="M57.507,248.782l-11.62,4.867l-0.844-2.016l9.604-4.023
			C55.76,247.144,57.041,247.669,57.507,248.782L57.507,248.782z"/>
		<path style="fill:#407BFF;" d="M57.832,252.387l-10.612,4.445l-0.844-2.016l10.612-4.445c0.557-0.233,1.197,0.029,1.43,0.586l0,0
			C58.651,251.513,58.389,252.153,57.832,252.387z"/>
		<path style="fill:#407BFF;" d="M59.232,255.728l-10.612,4.445l-0.844-2.016l10.612-4.445c0.557-0.233,1.197,0.029,1.43,0.586l0,0
			C60.051,254.855,59.788,255.495,59.232,255.728z"/>
		<path style="fill:#407BFF;" d="M60.631,259.069l-10.612,4.445l-0.844-2.016l10.612-4.445c0.557-0.233,1.197,0.029,1.43,0.586l0,0
			C61.45,258.196,61.188,258.836,60.631,259.069z"/>
		<path style="fill:#407BFF;" d="M62.031,262.411l-10.612,4.445l-0.844-2.016l10.612-4.445c0.557-0.233,1.197,0.029,1.43,0.586l0,0
			C62.85,261.537,62.588,262.178,62.031,262.411z"/>
		<path style="fill:#407BFF;" d="M63.431,265.752l-10.612,4.445l-0.844-2.016l10.612-4.445c0.557-0.233,1.197,0.029,1.43,0.586l0,0
			C64.249,264.879,63.987,265.519,63.431,265.752z"/>
		<path style="fill:#407BFF;" d="M64.83,269.094l-10.612,4.445l-0.844-2.016l10.612-4.445c0.557-0.233,1.197,0.029,1.43,0.586l0,0
			C65.649,268.22,65.387,268.861,64.83,269.094z"/>
		<path style="fill:#407BFF;" d="M66.23,272.435l-10.612,4.445l-0.844-2.016l10.612-4.445c0.557-0.233,1.197,0.029,1.43,0.586h0
			C67.049,271.562,66.786,272.202,66.23,272.435z"/>
		<path style="fill:#407BFF;" d="M67.629,275.777l-10.613,4.445l-0.844-2.016l10.612-4.445c0.557-0.233,1.197,0.029,1.43,0.586l0,0
			C68.448,274.903,68.186,275.544,67.629,275.777z"/>
		<path style="fill:#407BFF;" d="M69.029,279.118l-10.612,4.445l-0.844-2.016l10.613-4.445c0.557-0.233,1.197,0.029,1.43,0.586l0,0
			C69.848,278.245,69.586,278.885,69.029,279.118z"/>
		<path style="fill:#407BFF;" d="M70.428,282.46l-10.612,4.445l-0.844-2.016l10.612-4.445c0.557-0.233,1.197,0.029,1.43,0.586l0,0
			C71.247,281.586,70.985,282.227,70.428,282.46z"/>
		<path style="fill:#407BFF;" d="M71.828,285.801l-10.613,4.445l-0.844-2.016l10.613-4.445c0.557-0.233,1.197,0.029,1.43,0.586l0,0
			C72.647,284.928,72.385,285.568,71.828,285.801z"/>
		<path style="fill:#407BFF;" d="M73.228,289.143l-10.612,4.445l-0.844-2.016l10.612-4.445c0.557-0.233,1.197,0.029,1.43,0.586l0,0
			C74.047,288.269,73.784,288.909,73.228,289.143z"/>
		<path style="fill:#407BFF;" d="M74.627,292.484l-10.612,4.445l-0.844-2.016l10.612-4.445c0.557-0.233,1.197,0.029,1.43,0.586l0,0
			C75.446,291.611,75.184,292.251,74.627,292.484z"/>
		<path style="fill:#407BFF;" d="M76.027,295.826l-10.613,4.445l-0.844-2.016l10.613-4.445c0.557-0.233,1.197,0.029,1.43,0.586l0,0
			C76.846,294.952,76.584,295.592,76.027,295.826z"/>
		<path style="fill:#407BFF;" d="M77.426,299.167l-10.612,4.445l-0.844-2.016l10.613-4.445c0.557-0.233,1.197,0.029,1.43,0.586l0,0
			C78.245,298.294,77.983,298.934,77.426,299.167z"/>
		<path style="fill:#407BFF;" d="M78.826,302.509l-10.612,4.445l-0.844-2.016l10.612-4.445c0.557-0.233,1.197,0.029,1.43,0.586l0,0
			C79.645,301.635,79.383,302.275,78.826,302.509z"/>
		<path style="fill:#407BFF;" d="M80.226,305.85l-10.612,4.445l-0.844-2.016l10.613-4.445c0.557-0.233,1.197,0.029,1.43,0.586l0,0
			C81.045,304.977,80.782,305.617,80.226,305.85z"/>
		<path style="fill:#407BFF;" d="M81.625,309.191l-10.612,4.445l-0.844-2.016l10.612-4.445c0.557-0.233,1.197,0.029,1.43,0.586l0,0
			C82.444,308.318,82.182,308.958,81.625,309.191z"/>
		<path style="fill:#407BFF;" d="M82.017,312.955l-9.604,4.023l-0.844-2.016l11.62-4.867l0,0
			C83.655,311.208,83.13,312.489,82.017,312.955z"/>
	</g>
</g>
<g id="Scissors">
	<g>
		<g>
			<path style="fill:#263238;" d="M140.629,88.911c-0.172-0.507-67.665,33.601-67.665,33.601l0.011,0.029
				c-2.724-3.568-7.804-4.369-11.5-1.756c-3.781,2.673-4.679,7.906-2.006,11.687c2.673,3.781,7.905,4.679,11.686,2.006
				c2.88-2.036,4.085-5.557,3.315-8.79c2.316-1.23,19.944-10.403,24.986-7.381C99.457,118.307,142.164,93.429,140.629,88.911z
				 M69.886,132.682c-2.789,1.972-6.648,1.309-8.62-1.48c-1.972-2.789-1.309-6.648,1.48-8.62c2.789-1.972,6.648-1.309,8.62,1.48
				C73.337,126.851,72.674,130.71,69.886,132.682z"/>
		</g>
		<g style="opacity:0.2;">
			<path style="fill:#FFFFFF;" d="M140.629,88.911c-0.172-0.507-67.665,33.601-67.665,33.601l0.011,0.029
				c-2.724-3.568-7.804-4.369-11.5-1.756c-3.781,2.673-4.679,7.906-2.006,11.687c2.673,3.781,7.905,4.679,11.686,2.006
				c2.88-2.036,4.085-5.557,3.315-8.79c2.316-1.23,19.944-10.403,24.986-7.381C99.457,118.307,142.164,93.429,140.629,88.911z
				 M69.886,132.682c-2.789,1.972-6.648,1.309-8.62-1.48c-1.972-2.789-1.309-6.648,1.48-8.62c2.789-1.972,6.648-1.309,8.62,1.48
				C73.337,126.851,72.674,130.71,69.886,132.682z"/>
		</g>
		<g>
			<g>
				<path style="fill:#263238;" d="M95.73,113.729c3.293,4.87-4.905,22.972-6.006,25.352c-3.271-0.592-6.72,0.803-8.596,3.79
					c-2.463,3.921-1.281,9.097,2.641,11.559c3.921,2.463,9.097,1.281,11.56-2.641c2.407-3.833,1.331-8.862-2.381-11.387l0.03,0.009
					c0,0,30.375-69.254,29.859-69.398C118.241,69.729,95.73,113.729,95.73,113.729z M91.517,142.094
					c2.893,1.817,3.765,5.634,1.948,8.527c-1.817,2.893-5.634,3.765-8.527,1.948c-2.892-1.817-3.765-5.634-1.948-8.527
					C84.807,141.149,88.625,140.277,91.517,142.094z"/>
				<path style="opacity:0.3;fill:#FFFFFF;" d="M95.73,113.729c3.293,4.87-4.905,22.972-6.006,25.352
					c-3.271-0.592-6.72,0.803-8.596,3.79c-2.463,3.921-1.281,9.097,2.641,11.559c3.921,2.463,9.097,1.281,11.56-2.641
					c2.407-3.833,1.331-8.862-2.381-11.387l0.03,0.009c0,0,30.375-69.254,29.859-69.398C118.241,69.729,95.73,113.729,95.73,113.729
					z M91.517,142.094c2.893,1.817,3.765,5.634,1.948,8.527c-1.817,2.893-5.634,3.765-8.527,1.948
					c-2.892-1.817-3.765-5.634-1.948-8.527C84.807,141.149,88.625,140.277,91.517,142.094z"/>
				<g>
					<path style="fill:none;" d="M95.73,113.729c3.293,4.87-4.905,22.972-6.006,25.352c-3.271-0.592-6.72,0.803-8.596,3.79
						c-2.463,3.921-1.281,9.097,2.641,11.559c3.921,2.463,9.097,1.281,11.56-2.641c2.407-3.833,1.331-8.862-2.381-11.387l0.03,0.009
						c0,0,30.375-69.254,29.859-69.398C118.241,69.729,95.73,113.729,95.73,113.729z M91.517,142.094
						c2.893,1.817,3.765,5.634,1.948,8.527c-1.817,2.893-5.634,3.765-8.527,1.948c-2.892-1.817-3.765-5.634-1.948-8.527
						C84.807,141.149,88.625,140.277,91.517,142.094z"/>
				</g>
			</g>
		</g>
		<g>
			<path style="fill:#E0E0E0;" d="M102.263,114.564c-0.964,0.682-2.298,0.453-2.98-0.511c-0.682-0.964-0.453-2.298,0.511-2.98
				c0.964-0.682,2.298-0.453,2.98,0.512C103.456,112.548,103.227,113.882,102.263,114.564z"/>
		</g>
	</g>
</g>
<g id="Dog">
	<g>
		<g style="opacity:0.3;">
			<path style="fill:#407BFF;" d="M228.772,102.888c-1.668-5.739-7.676-9.884-13.634-9.407c-5.957,0.477-11.229,5.526-11.962,11.458
				c-3.398-2.581-8.962-1.465-11.101,2.228c-2.139,3.692-0.338,9.075,3.592,10.737l26.639,0.234
				C227.591,115.347,230.44,108.626,228.772,102.888z"/>
		</g>
		<g>
			<g id="freepik--Dog--inject-5">
				<path style="fill:#263238;" d="M155.656,211.565c-12.037-4.518-23.454-27.282-23.419-36.456
					c0.035-9.174,29.8-71.843,58.323-59.185C190.56,115.923,167.693,216.083,155.656,211.565z"/>
				<path style="fill:#407BFF;" d="M330.347,364.805c30.121,18.154,74.922-44.86,31.522-93.397c0,0,29.858,4.67,35.929,34.557
					l3.269-12.609c0,0,21.481,38.468,0,63.569l12.609-3.357c0,0-29.187,63.306-94.886,34.061L330.347,364.805z"/>
				<path style="opacity:0.3;enable-background:new    ;" d="M413.675,353.597c-0.73,1.547-30.121,62.897-94.886,34.032
					l11.675-22.824c4.23,2.548,9.203,3.577,14.097,2.919c3.012,6.092,4.246,12.91,3.561,19.672
					C348.122,387.396,390.355,390.664,413.675,353.597z"/>
				<path style="fill:#407BFF;" d="M172.351,283.292c0,0,28.078,131.107,27.114,133.442c-0.963,2.335-21.452,2.481-17.979,14.973
					h34.703c0,0,4.203-4.232,0-14.039c-2.919-6.655,0-67.801,0-67.801s1.722-28.807,0.146-43.255
					C215.372,297.856,172.351,283.292,172.351,283.292z"/>
				<path style="fill:#407BFF;" d="M188.345,300.979c0,0,22.766,113.42,21.802,115.755c-0.963,2.335-21.452,2.481-17.979,14.973
					h34.703c0,0,4.203-4.232,0-14.039c-2.919-6.655,0-67.801,0-67.801c4.411-7.746,6.317-16.666,5.458-25.538
					C231.308,315.573,188.345,300.979,188.345,300.979z"/>
				<path style="fill:#407BFF;" d="M159.479,246.4c0,0-3.094,19.146,2.043,35.024l5.312-7.939
					c1.491,11.113,5.246,21.801,11.033,31.405l2.072-7.063c0.438,0.759,0.876,1.489,1.342,2.218
					c26.268,41.737,42.671,131.661,42.671,131.661h61.292l72.12-71.186c-13.368-35.958-37.943-82.248-47.662-92.172
					c-42.087-43.488-74.047-32.105-77.257-93.398l-49.617-13.222c0,0-20.431,32.456-22.678,65.67
					c-2.625,8.117-3.945,16.599-3.911,25.13L159.479,246.4z"/>
				<path style="opacity:0.2;enable-background:new    ;" d="M161.088,221.281c0.31-12.333,6.431-23.605,6.691-35.835l33.559-8.933
					l26.282,8.623c0,0-10.106,27.04-53.667,35.318l4.932-4.932C172.852,217.114,166.91,219.037,161.088,221.281z"/>
				<path style="fill:#407BFF;" d="M129.255,175.212c-0.235,3.876,0.604,7.74,2.411,11.106v-2.173
					c2.177,5.604,5.637,10.528,10.061,14.313l-1.543-5.38c3.926,3.392,8.596,5.648,13.565,6.553l-0.321-1.552l0.611,0.241
					c25.586,8.967,53.069,10.416,79.459-9.795c20.861-15.969,8.807-44.044,2.796-55.184l5.304-2.208
					c-1.093-10.692-15.59-20.177-32.818-17.866c-14.079,1.931-21.215-4.518-21.215-4.518c-0.141,1.734,0.534,3.43,1.8,4.518
					c-6.3-0.69-10.639-8.243-10.639-8.243c-1.383,5.127,0.362,10.636,4.372,13.796c-2.647,0.537-5.176,1.601-7.457,3.139
					c-10.286,7.864-12.793,17.659-15.3,20.694c-2.507,3.035-20.507,5.208-31.018,9.347c-3.664,1.483-4.661,12.589,0.289,23.902
					L129.255,175.212z"/>
				<g style="opacity:0.3;">
					<path d="M243.233,212.479c-0.253-11.436-3.155-22.804-8.414-32.962l-11.318-38.946c-0.451,25.338-0.879,50.934,4.37,75.726
						c0.808,3.818,2.365,8.264,6.151,9.213c3.001,0.752,6.161-1.276,7.642-3.992C243.145,218.801,243.301,215.572,243.233,212.479z"
						/>
				</g>
				<path style="fill:#263238;" d="M238.908,217.532c12.693-2.276,28.11-22.591,29.662-31.628
					c1.552-9.036-16.383-76.051-46.734-68.739C221.835,117.165,226.216,219.808,238.908,217.532z"/>
				<path style="fill:#263238;" d="M195.911,139.257c2.499,0,4.629,3.472,4.629,7.776c0,4.305-2.176,7.776-4.629,7.776
					c-2.453,0-4.629-3.471-4.629-7.776C191.282,142.729,193.412,139.257,195.911,139.257z"/>
				<path style="fill:#263238;" d="M169.529,134.738c1.928,0.532,2.904,3.887,2.189,7.469c-0.715,3.582-2.802,6.079-4.765,5.586
					c-1.963-0.492-2.939-3.847-2.224-7.429C165.444,136.742,167.601,134.206,169.529,134.738z"/>
				<path style="fill:#263238;" d="M132.908,165.75c0,0-7.68-10.014-3.49-12.317c5.036-1.68,10.587-0.114,14.002,3.951
					C145.755,162.479,132.908,165.75,132.908,165.75z"/>
				<path style="opacity:0.3;enable-background:new    ;" d="M241.815,315.573c0.584,7.4,0.003,14.845-1.722,22.065l-3.181-3.969
					c-0.725,7.334-4.389,14.062-10.157,18.65l-0.467,14.039c-7.211,4.45-11.316,12.569-10.624,21.014
					c1.109,10.595,11.266,17.191,11.266,17.191l0.963,15.702c0,0,2.919,7.53-0.963,11.47h43.08l11.47-65.378
					c-12.035-8.355-26.732-11.972-41.27-10.157C240.21,356.201,250.921,335.887,241.815,315.573z"/>
				<path style="fill:#407BFF;" d="M354.709,353.72l-82.92-16.082l9.457,28.691c-6.187-2.411-12.72-3.82-19.351-4.174
					c-14.739-1.197-33.331,0-41.912,13.455l2.919-1.985c-4.57,4.883-5.477,12.152-2.247,18.008l0.438-2.131
					c5.837,19.205,35.199,24.079,58.373,24.896c0,0-32.105,0.409-36.804,9.311c-4.699,8.902,7.413,7.968,21.861,7.968h58.373
					c9.34,0,8.406-5.662,8.406-5.662s29.916,5.575,34.703-27.231C367.376,390.086,362.415,372.895,354.709,353.72z"/>
			</g>
			<g>
				<path style="fill:#263238;" d="M133.151,162.978c-1.636,18.266,22.408,29.075,37.734,23.577
					c5.544-1.737,10.478-5.019,14.854-8.809c-4.133,4.136-9.043,7.607-14.611,9.536c-5.565,1.993-11.758,2.166-17.477,0.652
					C142.65,185.143,130.93,175.405,133.151,162.978L133.151,162.978z"/>
			</g>
			<g>
				<path style="fill:#263238;" d="M136.179,175.644c-0.099,2.654-1.431,5.265-3.597,6.821
					C133.662,180.02,134.746,177.902,136.179,175.644L136.179,175.644z"/>
			</g>
			<g>
				<path style="fill:#263238;" d="M186.839,241.939c-0.588,5.919,0.02,11.917,1.82,17.569l-0.868,0.046
					c0.76-4.165,2.492-8.108,4.873-11.598c0.387,7.384,3.486,14.548,8.602,19.896c-5.337-4.632-8.727-11.4-9.42-18.425l0.868,0.207
					c-0.965,1.546-1.76,3.19-2.457,4.871c-0.92,2.191-1.493,4.597-1.938,6.932C186.182,255.205,185.56,248.405,186.839,241.939
					L186.839,241.939z"/>
			</g>
		</g>
		<g style="opacity:0.3;">
			<path style="fill:#407BFF;" d="M421.849,312.051c-2.309-8.205-11.205-13.98-19.64-12.749
				c5.541-10.358-1.151-25.125-12.591-27.787c-11.441-2.663-23.965,7.632-23.567,19.372c-10.377-1.168-20.847,7.382-21.778,17.783
				c-11.94-3.106-25.616,5.169-28.406,17.186c-6.862-6.364-16.467-9.661-25.79-8.854c-9.323,0.807-18.219,5.706-23.885,13.154
				c-7.078-10.904-22.917-14.991-34.388-8.873c0.437-9.344-3.916-18.786-11.305-24.523c-7.389-5.737-17.615-7.614-26.56-4.876
				c-1.271-10.039-11.469-18.059-21.525-16.927c-10.056,1.132-18.215,11.219-17.222,21.29c-8.831-2.242-18.856,1.37-24.228,8.73
				c-5.372,7.359-5.757,18.008-0.93,25.736l281.709,2.461C419.581,329.823,424.159,320.256,421.849,312.051z"/>
		</g>
		<g style="opacity:0.3;">
			<path d="M165.738,311.371c1.178,4.942-0.672,11.074-3.144,15.512c-2.471,4.438-6.649,7.898-11.47,9.499l0.289,0.757
				c5.857,0.745,11.869-2.822,14.48-8.117C168.504,323.727,169.556,315.667,165.738,311.371z"/>
		</g>
		<g>
			<g>
				<path style="fill:#263238;" d="M194.134,132.719c0.445,0.006,0.89,0.031,1.332,0.088c-0.163-0.021-0.061-0.008,0.042,0.009
					c0.097,0.017,0.195,0.033,0.292,0.051c0.219,0.041,0.436,0.088,0.652,0.142c0.432,0.106,0.858,0.236,1.277,0.389
					c0.093,0.034,0.186,0.069,0.278,0.105c0.075,0.029,0.311,0.132,0.121,0.048c0.204,0.09,0.405,0.185,0.604,0.286
					c0.375,0.19,0.741,0.399,1.095,0.625c0.406,0.259,0.678,0.459,0.895,0.639c0.324,0.268,0.634,0.552,0.928,0.852
					c0.156,0.159,0.307,0.322,0.454,0.489c0.081,0.093,0.161,0.188,0.24,0.283c0.025,0.031,0.222,0.285,0.086,0.105
					c0.472,0.624,1.316,1.013,2.052,0.538c0.617-0.398,1.045-1.383,0.538-2.052c-2.588-3.419-6.571-5.536-10.884-5.597
					c-0.785-0.011-1.536,0.698-1.5,1.5C192.671,132.041,193.293,132.707,194.134,132.719L194.134,132.719z"/>
			</g>
		</g>
		<g>
			<g>
				<path style="fill:#263238;" d="M167.141,130.549c2.81-1.998,6.221-2.569,9.446-1.611c0.776,0.231,1.634-0.278,1.845-1.048
					c0.219-0.797-0.268-1.614-1.048-1.845c-3.939-1.17-8.401-0.473-11.758,1.913c-0.659,0.469-0.973,1.309-0.538,2.052
					C165.469,130.663,166.477,131.021,167.141,130.549L167.141,130.549z"/>
			</g>
		</g>
		<g style="opacity:0.3;">
			<path style="fill:#407BFF;" d="M257.647,231.733c-3.137,3.474-3.77,8.978-1.505,13.074c2.265,4.096,7.264,6.485,11.874,5.675
				c1.396,5.87,5.052,11.311,10.337,14.223c5.285,2.912,12.195,2.995,17.21-0.362s7.572-10.244,5.378-15.866
				c-2.194-5.621-9.304-8.96-14.828-6.532c1.935-3.375,3.554-7.048,3.777-10.932c0.223-3.884-1.157-8.026-4.271-10.357
				c-3.115-2.332-8.049-2.263-10.573,0.698c0.145-5.022-3.724-9.863-8.655-10.828c-4.931-0.966-10.339,2.058-12.1,6.764
				c-1.761,4.706,0.335,10.537,4.689,13.045"/>
		</g>
		<path style="fill:#263238;" d="M414.437,352.879H125.466c-5.968,0-10.806-4.838-10.806-10.806l0,0
			c0-5.968,4.838-10.806,10.806-10.806h288.971c5.968,0,10.806,4.838,10.806,10.806l0,0
			C425.243,348.041,420.405,352.879,414.437,352.879z"/>
		<path style="fill:#263238;" d="M127.449,352.879l22.391,69.608c3.35,10.415,13.04,17.477,23.981,17.477h194.681
			c11.239,0,21.118-7.445,24.215-18.248l19.736-68.837H127.449z"/>
		<polygon style="opacity:0.3;enable-background:new    ;" points="127.449,352.879 412.454,352.879 409.489,363.221 
			131.311,364.884 		"/>
		<g>
			
				<ellipse transform="matrix(0.7071 -0.7071 0.7071 0.7071 -152.2674 169.1544)" style="opacity:0.3;fill:#407BFF;" cx="128.054" cy="268.38" rx="22.507" ry="22.507"/>
			<g style="opacity:0.3;">
				<path style="fill:#FFFFFF;" d="M119.671,250.79c-7.207,2.768-12.099,10.633-11.395,18.321c0.201,2.192,0.903,4.491,2.625,5.862
					s4.654,1.326,5.825-0.538c0.687-1.095,0.628-2.511,0.273-3.754c-0.356-1.243-0.976-2.395-1.366-3.628
					c-1.217-3.848,0.105-8.371,3.202-10.959c0.709-0.592,1.504-1.095,2.1-1.801c0.596-0.706,0.968-1.699,0.641-2.563
					c-0.327-0.864-1.557-1.347-2.237-0.723"/>
			</g>
			<g style="opacity:0.3;">
				<path d="M145.475,260.649c1.22,5.118-0.696,11.469-3.256,16.065c-2.559,4.596-6.886,8.179-11.879,9.837l0.3,0.784
					c6.066,0.771,12.292-2.923,14.996-8.407C148.34,273.445,149.429,265.098,145.475,260.649z"/>
			</g>
		</g>
		<g>
			<circle style="opacity:0.3;fill:#FFFFFF;" cx="263.405" cy="288.36" r="22.507"/>
			<g style="opacity:0.3;">
				<path style="fill:#FFFFFF;" d="M255.022,270.77c-7.207,2.768-12.099,10.633-11.395,18.321c0.201,2.192,0.903,4.491,2.625,5.862
					c1.722,1.371,4.654,1.326,5.824-0.538c0.688-1.095,0.628-2.511,0.273-3.754c-0.356-1.243-0.976-2.395-1.366-3.628
					c-1.217-3.848,0.105-8.371,3.202-10.958c0.709-0.592,1.504-1.095,2.1-1.801c0.596-0.706,0.968-1.699,0.641-2.563
					c-0.327-0.864-1.557-1.347-2.237-0.723"/>
			</g>
			<g style="opacity:0.3;">
				<path d="M280.826,280.629c1.22,5.118-0.696,11.469-3.256,16.065c-2.56,4.596-6.886,8.179-11.879,9.837l0.3,0.784
					c6.066,0.771,12.292-2.923,14.996-8.407C283.691,293.425,284.78,285.078,280.826,280.629z"/>
			</g>
		</g>
		<g>
			
				<ellipse transform="matrix(0.7551 -0.6556 0.6556 0.7551 -118.3322 270.6255)" style="opacity:0.3;fill:#FFFFFF;" cx="303.072" cy="293.703" rx="11.254" ry="11.254"/>
			<g style="opacity:0.3;">
				<path style="fill:#FFFFFF;" d="M298.88,284.908c-3.603,1.384-6.049,5.316-5.698,9.161c0.1,1.096,0.451,2.245,1.313,2.931
					c0.861,0.686,2.327,0.663,2.912-0.269c0.344-0.547,0.314-1.255,0.136-1.877c-0.178-0.621-0.488-1.198-0.683-1.814
					c-0.608-1.924,0.052-4.186,1.601-5.479c0.354-0.296,0.752-0.547,1.05-0.9c0.298-0.353,0.484-0.849,0.32-1.281
					c-0.164-0.432-0.778-0.674-1.118-0.361"/>
			</g>
			<g style="opacity:0.3;">
				<path d="M311.782,289.837c0.61,2.559-0.348,5.734-1.628,8.033c-1.28,2.298-3.443,4.09-5.939,4.919l0.15,0.392
					c3.033,0.386,6.146-1.461,7.498-4.203C313.215,296.235,313.76,292.062,311.782,289.837z"/>
			</g>
		</g>
		<g>
			
				<ellipse transform="matrix(0.9635 -0.2677 0.2677 0.9635 -40.7149 86.8139)" style="opacity:0.3;fill:#407BFF;" cx="297.968" cy="192.699" rx="15.605" ry="15.605"/>
			<g style="opacity:0.3;">
				<path style="fill:#FFFFFF;" d="M299.004,179.228c-5.289-0.825-10.946,2.214-13.178,7.078c-0.637,1.387-1.008,3.012-0.447,4.431
					c0.562,1.419,2.34,2.404,3.688,1.688c0.792-0.421,1.245-1.293,1.461-2.163c0.215-0.87,0.24-1.777,0.432-2.653
					c0.598-2.734,2.954-4.996,5.71-5.482c0.631-0.111,1.282-0.139,1.884-0.357s1.168-0.687,1.27-1.319
					c0.102-0.632-0.471-1.347-1.095-1.207"/>
			</g>
			<g style="opacity:0.3;">
				<path d="M311.111,194.068c-1.034,3.498-4.38,6.654-7.506,8.534c-3.126,1.879-6.965,2.539-10.539,1.811l-0.091,0.575
					c3.38,2.559,8.399,2.488,11.919,0.125C308.414,202.75,311.952,198.108,311.111,194.068z"/>
			</g>
		</g>
		<g>
			<path style="opacity:0.3;fill:#407BFF;" d="M316.876,228.908c-1.789,3.115-5.765,4.189-8.879,2.4
				c-3.115-1.789-4.189-5.765-2.4-8.879c1.789-3.115,5.765-4.189,8.879-2.4C317.591,221.818,318.665,225.794,316.876,228.908z"/>
			<g style="opacity:0.3;">
				<path style="fill:#FFFFFF;" d="M311.668,220.054c-2.204-0.344-4.562,0.923-5.492,2.95c-0.265,0.578-0.42,1.255-0.186,1.847
					s0.975,1.002,1.537,0.704c0.33-0.175,0.519-0.539,0.609-0.901c0.09-0.363,0.1-0.741,0.18-1.106
					c0.249-1.139,1.231-2.082,2.38-2.285c0.263-0.046,0.535-0.058,0.785-0.149c0.251-0.091,0.487-0.286,0.529-0.55
					c0.042-0.264-0.196-0.562-0.456-0.503"/>
			</g>
			<g style="opacity:0.3;">
				<path d="M316.714,226.239c-0.431,1.458-1.825,2.773-3.128,3.557c-1.303,0.783-2.903,1.058-4.392,0.755l-0.038,0.24
					c1.409,1.066,3.501,1.037,4.967,0.052C315.59,229.857,317.065,227.923,316.714,226.239z"/>
			</g>
		</g>
		<g>
			<path style="opacity:0.3;fill:#407BFF;" d="M424.715,285.689c-1.789,3.115-5.765,4.189-8.879,2.4
				c-3.115-1.789-4.189-5.765-2.4-8.879c1.789-3.115,5.765-4.189,8.879-2.399C425.43,278.599,426.505,282.574,424.715,285.689z"/>
			<g style="opacity:0.3;">
				<path style="fill:#FFFFFF;" d="M419.508,276.835c-2.204-0.344-4.562,0.922-5.492,2.95c-0.265,0.578-0.42,1.255-0.186,1.847
					c0.234,0.591,0.975,1.002,1.537,0.703c0.33-0.175,0.519-0.539,0.609-0.901c0.09-0.363,0.1-0.741,0.18-1.106
					c0.249-1.139,1.231-2.082,2.38-2.285c0.263-0.046,0.534-0.058,0.785-0.149c0.251-0.091,0.487-0.286,0.529-0.55
					c0.042-0.263-0.196-0.562-0.457-0.503"/>
			</g>
			<g style="opacity:0.3;">
				<path d="M424.554,283.02c-0.431,1.458-1.825,2.773-3.128,3.557c-1.303,0.783-2.903,1.058-4.392,0.755l-0.038,0.24
					c1.409,1.066,3.5,1.037,4.967,0.052C423.43,286.638,424.904,284.704,424.554,283.02z"/>
			</g>
		</g>
		<g>
			
				<ellipse transform="matrix(0.0281 -0.9996 0.9996 0.0281 -72.5774 407.1753)" style="opacity:0.3;fill:#FFFFFF;" cx="173.105" cy="240.911" rx="11.254" ry="11.254"/>
			<g style="opacity:0.3;">
				<path style="fill:#FFFFFF;" d="M173.852,231.197c-3.814-0.595-7.894,1.596-9.504,5.105c-0.459,1-0.727,2.172-0.322,3.195
					c0.405,1.023,1.687,1.734,2.659,1.217c0.571-0.303,0.898-0.932,1.053-1.56c0.155-0.628,0.173-1.282,0.311-1.913
					c0.431-1.971,2.13-3.603,4.118-3.953c0.455-0.08,0.925-0.1,1.359-0.258c0.434-0.158,0.842-0.495,0.916-0.951
					c0.073-0.456-0.339-0.972-0.79-0.87"/>
			</g>
			<g style="opacity:0.3;">
				<path d="M182.584,241.899c-0.746,2.522-3.159,4.799-5.413,6.154c-2.255,1.355-5.023,1.831-7.6,1.306l-0.065,0.415
					c2.438,1.845,6.057,1.794,8.595,0.09C180.639,248.16,183.19,244.812,182.584,241.899z"/>
			</g>
		</g>
		<g>
			
				<ellipse transform="matrix(0.3383 -0.941 0.941 0.3383 39.1274 228.6364)" style="opacity:0.3;fill:#407BFF;" cx="182.139" cy="86.496" rx="11.254" ry="11.254"/>
			<g style="opacity:0.3;">
				<path style="fill:#FFFFFF;" d="M182.886,76.782c-3.814-0.595-7.894,1.596-9.504,5.105c-0.459,1-0.727,2.172-0.322,3.195
					c0.405,1.024,1.687,1.734,2.659,1.217c0.571-0.303,0.898-0.932,1.053-1.56c0.155-0.628,0.173-1.282,0.311-1.913
					c0.431-1.972,2.13-3.603,4.118-3.954c0.455-0.08,0.925-0.1,1.359-0.258c0.434-0.158,0.843-0.495,0.916-0.951
					c0.073-0.456-0.339-0.972-0.79-0.87"/>
			</g>
			<g style="opacity:0.3;">
				<path d="M191.618,87.483c-0.746,2.523-3.159,4.799-5.413,6.154c-2.254,1.355-5.023,1.831-7.6,1.306l-0.065,0.414
					c2.438,1.845,6.057,1.794,8.595,0.09C189.673,93.744,192.224,90.397,191.618,87.483z"/>
			</g>
		</g>
		<g style="opacity:0.3;">
			<path style="fill:#FFFFFF;" d="M268.23,213.679c-2.39-1.221-5.387-1.167-7.732,0.138c-2.345,1.305-3.969,3.825-4.191,6.499
				c-0.085,1.031,0.057,2.15,0.739,2.928c0.682,0.778,2.028,1.016,2.747,0.272c0.578-0.597,0.56-1.528,0.686-2.349
				c0.412-2.678,2.962-4.856,5.672-4.844c0.614,0.003,1.206-0.088,1.814-0.174C269.274,215.962,269.699,214.642,268.23,213.679"/>
		</g>
		<g style="opacity:0.3;">
			<path style="fill:#FFFFFF;" d="M283.209,222.926c-2.39-1.221-5.387-1.167-7.732,0.138c-2.345,1.305-3.969,3.825-4.191,6.499
				c-0.085,1.031,0.056,2.15,0.739,2.928c0.682,0.778,2.028,1.016,2.747,0.272c0.578-0.597,0.56-1.528,0.686-2.349
				c0.412-2.678,2.963-4.856,5.672-4.845c0.614,0.003,1.206-0.088,1.814-0.174C284.253,225.21,284.677,223.89,283.209,222.926"/>
		</g>
		<g style="opacity:0.3;">
			<path style="fill:#FFFFFF;" d="M140.503,301.851c-6.959,2.673-11.682,10.267-11.003,17.69c0.194,2.117,0.872,4.336,2.535,5.66
				s4.494,1.28,5.624-0.52c0.664-1.057,0.607-2.425,0.263-3.625c-0.344-1.2-0.943-2.313-1.319-3.503
				c-1.175-3.716,0.101-8.083,3.092-10.581c0.684-0.572,1.452-1.057,2.028-1.739c0.575-0.682,0.934-1.64,0.618-2.474
				c-0.316-0.834-1.503-1.301-2.16-0.698"/>
		</g>
		<g style="opacity:0.3;">
			<path style="fill:#FFFFFF;" d="M221.988,300.905c-7.671-0.868-15.639,3.853-18.561,10.999c-0.833,2.038-1.27,4.401-0.375,6.412
				c0.895,2.011,3.518,3.323,5.416,2.209c1.115-0.654,1.716-1.938,1.974-3.205c0.258-1.267,0.238-2.576,0.461-3.849
				c0.695-3.976,3.954-7.379,7.896-8.246c0.902-0.199,1.84-0.277,2.694-0.629c0.854-0.352,1.642-1.061,1.75-1.978
				c0.108-0.917-0.76-1.913-1.652-1.673"/>
		</g>
		<g style="opacity:0.3;">
			<path style="fill:#FFFFFF;" d="M373.643,297.622c-7.671-0.868-15.639,3.853-18.561,10.999c-0.833,2.038-1.27,4.401-0.375,6.412
				c0.895,2.011,3.518,3.323,5.416,2.209c1.115-0.654,1.716-1.938,1.974-3.205c0.258-1.267,0.238-2.576,0.461-3.849
				c0.695-3.976,3.954-7.379,7.896-8.246c0.902-0.199,1.84-0.277,2.694-0.629c0.854-0.352,1.642-1.061,1.75-1.978
				c0.108-0.917-0.76-1.913-1.652-1.673"/>
		</g>
		<g style="opacity:0.3;">
			<path style="fill:#FFFFFF;" d="M324.021,310.066c-9.439-2.108-19.992,3.743-23.205,12.866
				c-10.409-5.545-24.574-2.642-31.963,6.549c-5.063-8.623-17.589-11.781-26.134-6.589c0.097-7.882-3.583-15.806-9.903-20.517
				c-6.32-4.711-15.175-5.94-22.399-2.785c-7.224,3.156-12.402,10.715-12.375,18.598c-4.657-1.124-7.483,0.242-11.385,3.02
				c-3.903,2.778-4.977,5.752-4.424,10.176l157.316,0.196C340.522,321.958,333.46,312.174,324.021,310.066z"/>
		</g>
		<path style="fill:none;stroke:#263238;stroke-width:0.75;stroke-linecap:round;stroke-linejoin:round;stroke-miterlimit:10;" d="
			M312.143,264.983c8.856,9.102,15.767,20.086,20.138,32.009"/>
		<path style="fill:none;stroke:#263238;stroke-width:0.75;stroke-linecap:round;stroke-linejoin:round;stroke-miterlimit:10;" d="
			M156.958,226.227c-2.849,5.896-4.516,12.36-4.873,18.898"/>
	</g>
</g>
<g id="Food">
	<g>
		<g>
			<path style="fill:#407BFF;" d="M407.905,414.427c2.586-0.489,4.701-2.838,4.918-5.461c0.217-2.623-1.484-5.287-3.955-6.195
				c-1.609-0.591-3.449-0.398-4.962,0.396l-9.777-8.983c1.107-1.924,0.548-3.938-0.771-5.46c-1.478-1.706-3.872-2.491-6.219-1.672
				c-2.131,0.743-3.573,3.057-3.44,5.31c-2.586,0.489-4.701,2.839-4.918,5.461c-0.217,2.623,1.484,5.287,3.955,6.194
				c1.786,0.656,3.858,0.347,5.449-0.681l9.587,8.809c-1.49,2.058-0.951,4.275,0.473,5.92c1.478,1.706,3.872,2.491,6.219,1.673
				C406.596,418.994,408.038,416.681,407.905,414.427z"/>
			<path style="opacity:0.1;" d="M407.905,414.427c2.586-0.489,4.701-2.838,4.918-5.461c0.217-2.623-1.484-5.287-3.955-6.195
				c-1.609-0.591-3.449-0.398-4.962,0.396l-9.777-8.983c1.107-1.924,0.548-3.938-0.771-5.46c-1.478-1.706-3.872-2.491-6.219-1.672
				c-2.131,0.743-3.573,3.057-3.44,5.31c-2.586,0.489-4.701,2.839-4.918,5.461c-0.217,2.623,1.484,5.287,3.955,6.194
				c1.786,0.656,3.858,0.347,5.449-0.681l9.587,8.809c-1.49,2.058-0.951,4.275,0.473,5.92c1.478,1.706,3.872,2.491,6.219,1.673
				C406.596,418.994,408.038,416.681,407.905,414.427z"/>
		</g>
		<g>
			<path style="fill:#407BFF;" d="M366.413,415.574c1.962,1.754,5.113,2.003,7.326,0.579c2.213-1.424,3.292-4.395,2.509-6.908
				c-0.51-1.636-1.783-2.979-3.334-3.696l1.179-13.225c2.2-0.292,3.458-1.961,3.864-3.934c0.455-2.211-0.38-4.589-2.457-5.953
				c-1.887-1.239-4.6-0.976-6.307,0.502c-1.962-1.754-5.113-2.003-7.326-0.579c-2.213,1.424-3.292,4.395-2.509,6.908
				c0.566,1.816,2.072,3.273,3.856,3.91l-1.156,12.968c-2.539,0.07-3.971,1.847-4.409,3.978c-0.455,2.211,0.38,4.589,2.457,5.953
				C361.993,417.314,364.706,417.051,366.413,415.574z"/>
			<path style="opacity:0.1;" d="M366.413,415.574c1.962,1.754,5.113,2.003,7.326,0.579c2.213-1.424,3.292-4.395,2.509-6.908
				c-0.51-1.636-1.783-2.979-3.334-3.696l1.179-13.225c2.2-0.292,3.458-1.961,3.864-3.934c0.455-2.211-0.38-4.589-2.457-5.953
				c-1.887-1.239-4.6-0.976-6.307,0.502c-1.962-1.754-5.113-2.003-7.326-0.579c-2.213,1.424-3.292,4.395-2.509,6.908
				c0.566,1.816,2.072,3.273,3.856,3.91l-1.156,12.968c-2.539,0.07-3.971,1.847-4.409,3.978c-0.455,2.211,0.38,4.589,2.457,5.953
				C361.993,417.314,364.706,417.051,366.413,415.574z"/>
		</g>
		<g>
			<path style="fill:#407BFF;" d="M414.675,419.059c1.962,1.754,5.113,2.003,7.326,0.579c2.213-1.424,3.292-4.395,2.509-6.908
				c-0.51-1.636-1.783-2.979-3.334-3.696l1.179-13.225c2.2-0.292,3.458-1.961,3.864-3.934c0.455-2.211-0.38-4.589-2.457-5.953
				c-1.887-1.239-4.6-0.976-6.307,0.502c-1.962-1.754-5.113-2.003-7.326-0.579c-2.213,1.424-3.292,4.395-2.509,6.908
				c0.567,1.816,2.072,3.273,3.856,3.91l-1.156,12.968c-2.539,0.07-3.971,1.847-4.409,3.978c-0.455,2.211,0.38,4.589,2.457,5.953
				C410.254,420.8,412.968,420.536,414.675,419.059z"/>
			<path style="opacity:0.1;" d="M414.675,419.059c1.962,1.754,5.113,2.003,7.326,0.579c2.213-1.424,3.292-4.395,2.509-6.908
				c-0.51-1.636-1.783-2.979-3.334-3.696l1.179-13.225c2.2-0.292,3.458-1.961,3.864-3.934c0.455-2.211-0.38-4.589-2.457-5.953
				c-1.887-1.239-4.6-0.976-6.307,0.502c-1.962-1.754-5.113-2.003-7.326-0.579c-2.213,1.424-3.292,4.395-2.509,6.908
				c0.567,1.816,2.072,3.273,3.856,3.91l-1.156,12.968c-2.539,0.07-3.971,1.847-4.409,3.978c-0.455,2.211,0.38,4.589,2.457,5.953
				C410.254,420.8,412.968,420.536,414.675,419.059z"/>
		</g>
		<path style="fill:#407BFF;" d="M362.44,415.567c2.619,0.258,5.31-1.401,6.256-3.856c0.946-2.456,0.063-5.491-2.052-7.057
			c-1.378-1.02-3.198-1.353-4.873-1.016l-6.854-11.372c1.603-1.534,1.634-3.624,0.797-5.456c-0.938-2.053-3.015-3.48-5.497-3.355
			c-2.254,0.113-4.289,1.928-4.795,4.128c-2.619-0.258-5.31,1.401-6.256,3.856c-0.946,2.456-0.063,5.491,2.052,7.057
			c1.529,1.132,3.604,1.419,5.421,0.88l6.721,11.15c-2.009,1.556-2.115,3.835-1.211,5.814c0.938,2.053,3.015,3.48,5.497,3.355
			C359.899,419.581,361.934,417.767,362.44,415.567z"/>
		<path style="opacity:0.3;" d="M362.44,415.567c2.619,0.258,5.31-1.401,6.256-3.856c0.946-2.456,0.063-5.491-2.052-7.057
			c-1.378-1.02-3.198-1.353-4.873-1.016l-6.854-11.372c1.603-1.534,1.634-3.624,0.797-5.456c-0.938-2.053-3.015-3.48-5.497-3.355
			c-2.254,0.113-4.289,1.928-4.795,4.128c-2.619-0.258-5.31,1.401-6.256,3.856c-0.946,2.456-0.063,5.491,2.052,7.057
			c1.529,1.132,3.604,1.419,5.421,0.88l6.721,11.15c-2.009,1.556-2.115,3.835-1.211,5.814c0.938,2.053,3.015,3.48,5.497,3.355
			C359.899,419.581,361.934,417.767,362.44,415.567z"/>
		<g>
			<path style="fill:#407BFF;" d="M368.093,402.45c-1.987,1.725-2.632,4.82-1.498,7.195s3.946,3.82,6.536,3.359
				c1.687-0.3,3.18-1.393,4.087-2.841l12.971,2.836c0.013,2.219,1.51,3.678,3.416,4.329c2.136,0.73,4.6,0.201,6.215-1.688
				c1.467-1.716,1.547-4.441,0.297-6.32c1.987-1.725,2.632-4.82,1.498-7.195c-1.134-2.375-3.946-3.82-6.536-3.359
				c-1.873,0.333-3.508,1.643-4.364,3.333l-12.719-2.781c0.25-2.528-1.332-4.172-3.391-4.876c-2.136-0.73-4.6-0.201-6.215,1.688
				C366.923,397.845,366.843,400.57,368.093,402.45z"/>
			<path style="opacity:0.3;" d="M368.093,402.45c-1.987,1.725-2.632,4.82-1.498,7.195s3.946,3.82,6.536,3.359
				c1.687-0.3,3.18-1.393,4.087-2.841l12.971,2.836c0.013,2.219,1.51,3.678,3.416,4.329c2.136,0.73,4.6,0.201,6.215-1.688
				c1.467-1.716,1.547-4.441,0.297-6.32c1.987-1.725,2.632-4.82,1.498-7.195c-1.134-2.375-3.946-3.82-6.536-3.359
				c-1.873,0.333-3.508,1.643-4.364,3.333l-12.719-2.781c0.25-2.528-1.332-4.172-3.391-4.876c-2.136-0.73-4.6-0.201-6.215,1.688
				C366.923,397.845,366.843,400.57,368.093,402.45z"/>
		</g>
		<g>
			<path style="fill:#407BFF;" d="M404.766,412.424c-0.61,2.56,0.67,5.451,2.975,6.72c2.305,1.269,5.432,0.805,7.27-1.079
				c1.196-1.227,1.772-2.985,1.665-4.691l12.194-5.254c1.304,1.796,3.37,2.109,5.299,1.527c2.161-0.652,3.856-2.517,4.067-4.993
				c0.192-2.249-1.33-4.51-3.441-5.309c0.61-2.56-0.67-5.451-2.975-6.72c-2.305-1.269-5.432-0.805-7.27,1.079
				c-1.328,1.362-1.893,3.38-1.604,5.252l-11.957,5.152c-1.27-2.2-3.514-2.614-5.597-1.986c-2.161,0.652-3.856,2.517-4.067,4.993
				C401.132,409.364,402.654,411.625,404.766,412.424z"/>
			<path style="opacity:0.3;" d="M404.766,412.424c-0.61,2.56,0.67,5.451,2.975,6.72c2.305,1.269,5.432,0.805,7.27-1.079
				c1.196-1.227,1.772-2.985,1.665-4.691l12.194-5.254c1.304,1.796,3.37,2.109,5.299,1.527c2.161-0.652,3.856-2.517,4.067-4.993
				c0.192-2.249-1.33-4.51-3.441-5.309c0.61-2.56-0.67-5.451-2.975-6.72c-2.305-1.269-5.432-0.805-7.27,1.079
				c-1.328,1.362-1.893,3.38-1.604,5.252l-11.957,5.152c-1.27-2.2-3.514-2.614-5.597-1.986c-2.161,0.652-3.856,2.517-4.067,4.993
				C401.132,409.364,402.654,411.625,404.766,412.424z"/>
		</g>
		<path style="fill:#407BFF;" d="M370.768,405.519c1.308-2.283,0.897-5.418-0.956-7.287c-1.853-1.869-4.984-2.307-7.278-1.019
			c-1.494,0.839-2.543,2.363-2.922,4.029l-13.182,1.596c-0.743-2.091-2.637-2.975-4.651-2.962c-2.257,0.015-4.41,1.325-5.312,3.641
			c-0.82,2.103,0.002,4.703,1.801,6.065c-1.308,2.283-0.897,5.418,0.956,7.287c1.853,1.869,4.984,2.307,7.278,1.018
			c1.659-0.932,2.77-2.707,3.023-4.585l12.925-1.565c0.596,2.47,2.632,3.5,4.807,3.486c2.257-0.015,4.41-1.325,5.312-3.641
			C373.389,409.481,372.568,406.882,370.768,405.519z"/>
		<path style="fill:#407BFF;" d="M431.398,399.308c-0.409-2.599-2.692-4.787-5.306-5.084c-2.615-0.298-5.331,1.32-6.314,3.761
			c-0.64,1.59-0.504,3.435,0.243,4.971l-9.281,9.495c-1.889-1.166-3.919-0.669-5.482,0.602c-1.751,1.424-2.609,3.794-1.864,6.165
			c0.677,2.153,2.945,3.666,5.201,3.602c0.409,2.599,2.692,4.787,5.306,5.084c2.615,0.298,5.331-1.32,6.314-3.761
			c0.711-1.765,0.466-3.845-0.512-5.467l9.101-9.311c2.011,1.553,4.244,1.082,5.931-0.29c1.751-1.424,2.609-3.794,1.864-6.165
			C435.922,400.757,433.654,399.244,431.398,399.308z"/>
		<path style="fill:#407BFF;" d="M388.934,419.305c0.817,2.501,3.419,4.298,6.048,4.175c2.629-0.122,5.053-2.152,5.635-4.718
			c0.379-1.671-0.048-3.471-1.031-4.87l7.652-10.851c2.05,0.85,3.975,0.038,5.316-1.466c1.502-1.685,1.973-4.16,0.859-6.383
			c-1.011-2.018-3.491-3.151-5.708-2.729c-0.817-2.501-3.419-4.298-6.048-4.176c-2.629,0.122-5.053,2.152-5.635,4.718
			c-0.421,1.856,0.152,3.87,1.376,5.316l-7.504,10.64c-2.232-1.213-4.362-0.394-5.81,1.23c-1.502,1.685-1.973,4.16-0.859,6.383
			C384.236,418.594,386.716,419.727,388.934,419.305z"/>
		<path style="fill:#263238;" d="M319.161,440.926l8.549-25.123c1.217-3.577,4.576-5.982,8.354-5.982h99.953
			c3.342,0,6.297,2.172,7.293,5.362l8.044,25.742H319.161z"/>
		<path style="opacity:0.4;fill:#FFFFFF;" d="M319.161,440.926l8.549-25.123c1.217-3.577,4.576-5.982,8.354-5.982h99.953
			c3.342,0,6.297,2.172,7.293,5.362l8.044,25.742H319.161z"/>
		<polygon style="opacity:0.4;fill:#FFFFFF;" points="370.828,409.821 343.918,440.926 359.074,440.926 386.693,409.821 		"/>
		<polygon style="opacity:0.4;fill:#FFFFFF;" points="391.548,409.821 364.638,440.926 368.45,440.926 394.379,409.821 		"/>
	</g>
</g>
</svg>
